<mxfile host="app.diagrams.net" modified="2023-08-20T14:44:10.209Z" agent="Mozilla/5.0 (Macintosh; Intel Mac OS X 10_15_7) AppleWebKit/537.36 (KHTML, like Gecko) Chrome/115.0.0.0 Safari/537.36" etag="UpC3rOaioXDHHi6dajTm" version="21.6.8" type="github">
  <diagram name="Page-1" id="k_2LH0MhNi8MQeWM8KeK">
    <mxGraphModel dx="822" dy="550" grid="1" gridSize="10" guides="1" tooltips="1" connect="1" arrows="1" fold="1" page="1" pageScale="1" pageWidth="850" pageHeight="1100" math="0" shadow="0">
      <root>
        <mxCell id="0" />
        <mxCell id="1" parent="0" />
        <mxCell id="SVO_0Hrm69eMG6_zyPty-30" value="&lt;font style=&quot;font-size: 16px;&quot;&gt;Browser&lt;/font&gt;" style="rounded=1;whiteSpace=wrap;html=1;strokeWidth=2;fillWeight=4;hachureGap=8;hachureAngle=45;fillColor=#e3c800;fontColor=#000000;strokeColor=#B09500;opacity=40;gradientColor=none;sketch=1;curveFitting=1;jiggle=2;fontFamily=Courier New;verticalAlign=bottom;labelPosition=center;verticalLabelPosition=top;align=center;" vertex="1" parent="1">
          <mxGeometry x="122.75" y="330" width="60" height="120" as="geometry" />
        </mxCell>
        <mxCell id="SVO_0Hrm69eMG6_zyPty-1" value="User" style="shape=umlActor;verticalLabelPosition=bottom;verticalAlign=top;html=1;outlineConnect=0;" vertex="1" parent="1">
          <mxGeometry x="70" y="355" width="30" height="60" as="geometry" />
        </mxCell>
        <mxCell id="SVO_0Hrm69eMG6_zyPty-5" value="&lt;font style=&quot;font-size: 16px;&quot; face=&quot;Courier New&quot;&gt;Kraken.js&lt;br&gt;(Node APP)&lt;br&gt;&lt;/font&gt;" style="rounded=1;whiteSpace=wrap;html=1;strokeWidth=2;fillWeight=4;hachureGap=8;hachureAngle=45;fillColor=#1ba1e2;sketch=1;labelPosition=center;verticalLabelPosition=top;align=center;verticalAlign=bottom;opacity=60;" vertex="1" parent="1">
          <mxGeometry x="240" y="330" width="100" height="120" as="geometry" />
        </mxCell>
        <mxCell id="SVO_0Hrm69eMG6_zyPty-8" value="" style="shape=image;verticalLabelPosition=bottom;labelBackgroundColor=default;verticalAlign=top;aspect=fixed;imageAspect=0;image=data:image/svg+xml,PHN2ZyB4bWxuczp4bGluaz0iaHR0cDovL3d3dy53My5vcmcvMTk5OS94bGluayIgeG1sbnM9Imh0dHA6Ly93d3cudzMub3JnLzIwMDAvc3ZnIiB4bWw6c3BhY2U9InByZXNlcnZlIiB2aWV3Qm94PSIwIDAgMTM2IDEzNiIgaGVpZ2h0PSIxMzZweCIgd2lkdGg9IjEzNnB4IiB5PSIwcHgiIHg9IjBweCIgaWQ9IkxheWVyXzEiIHZlcnNpb249IjEuMSI+JiN4YTs8Zz4mI3hhOwk8cG9seWdvbiBwb2ludHM9IjY4LDAuNjI0IDUuMDQyLDMxLjU1MSA1LjA0Miw2OCA1LjA0MiwxMDQuNDQ5IDY4LDEzNS4zNzYgMTMwLjk1OCwxMDQuNDQ5IDEzMC45NTgsNjggJiMxMDsmIzk7JiM5OzEzMC45NTgsMzEuNTUxIiBmaWxsPSIjMDA4MUMyIi8+JiN4YTsJPHBhdGggZD0iTTExNS44MDYsOTEuMzU2Yy0wLjE5OC0xLjM1LTAuNzUtMi42MjUtMS40NzMtMy42NTljLTAuNzI1LTEuMDM4LTEuNTkxLTEuODc5LTIuNDk4LTIuNTY0JiMxMDsmIzk7JiM5O2MtMS44MjMtMS4zNjctMy44LTIuMjA4LTUuODA0LTIuNzMxYy0wLjE2My0wLjA0My0wLjMyNi0wLjA4My0wLjQ5MS0wLjEyMmMwLjUwMy0wLjY1NiwwLjk2LTEuMzI1LDEuMzgzLTIuMDIxJiMxMDsmIzk7JiM5O2MwLjg1NC0xLjQxOCwxLjU3LTIuOTM0LDIuMDUzLTQuNTU5YzAuNDcyLTEuNjIyLDAuNjkzLTMuMzcsMC40ODItNS4wOTNjLTAuMjAzLTEuNzIxLTAuODU3LTMuMzcyLTEuODM2LTQuNjk2JiMxMDsmIzk7JiM5O2MtMC40ODItMC42NjgtMS4wMjgtMS4yNjgtMS42MTMtMS44MDVsLTAuNDQ2LTAuMzkxYy0wLjE1My0wLjEyNS0wLjMwNi0wLjI0Ny0wLjQ2Mi0wLjM2OGwtMC40NzktMC4zNTJsLTAuNDY2LTAuMzE0JiMxMDsmIzk7JiM5O2MtMC4yMS0wLjE0MS0wLjQ5Ni0wLjEyNC0wLjY4NywwLjA1N2MtMC4yMjIsMC4yMDktMC4yMywwLjU1OC0wLjAyMSwwLjc3OWwwLjM4NiwwLjQwOGwwLjM0OCwwLjM5OWwwLjMzNiwwLjQxNWwwLjMxOCwwLjQyMiYjMTA7JiM5OyYjOTtjMC40MDksMC41NzEsMC43NTgsMS4xNjksMS4wMzEsMS43ODRjMC41NSwxLjIzMSwwLjc4LDIuNTIxLDAuNjg2LDMuNzc3Yy0wLjA5MSwxLjI1OS0wLjQ5MSwyLjQ4NS0xLjA4MiwzLjY0JiMxMDsmIzk7JiM5O2MtMC41ODUsMS4xNTYtMS4zNTgsMi4yNDgtMi4yMzgsMy4yNDljLTAuNDM4LDAuNS0wLjkwNCwwLjk4MS0xLjM4MywxLjQyM2MtMC4xMTksMC4xMS0wLjIzOSwwLjIxNy0wLjM1NywwLjMxNiYjMTA7JiM5OyYjOTtjLTAuMDU4LDAuMDQ5LTAuMTE2LDAuMDk5LTAuMTY3LDAuMTM4bC0wLjAxOSwwLjAxNGwtMC4wMDYsMC4wMDNjLTAuMDA5LDAuMDA3LDAuMDc0LTAuMDcxLDAuMDMyLTAuMDMzJiMxMDsmIzk7JiM5O2MwLTAuMDAxLDAuMDAxLTAuMDAyLDAuMDAxLTAuMDAzYzAuMDA1LTAuMDA2LTAuMDA1LDAuMDAyLTAuMDA4LDAuMDAzbC0wLjA3MywwLjA0OGMtMC4yMjQsMC4xNDYtMC40OTMsMC4zMTItMC43NjIsMC40NjEmIzEwOyYjOTsmIzk7Yy0xLjA4OCwwLjYwNC0yLjI3LDEuMDg0LTMuNDQ5LDEuMzc2Yy0xLjE4NCwwLjI5Ny0yLjM2OCwwLjQwOS0zLjUxMywwLjM1NmMtMS4xNDctMC4wNTItMi4yNTUtMC4yOTYtMy4zMTktMC42ODImIzEwOyYjOTsmIzk7Yy0wLjA0OC0wLjAxNy0wLjA5Ni0wLjAzNi0wLjE0NC0wLjA1NWMwLjIyMi0wLjAzMiwwLjQ0My0wLjA2OCwwLjY2OC0wLjExM2MwLjY5OS0wLjE0MSwxLjQxNi0wLjM0NywyLjEyNy0wLjY0NCYjMTA7JiM5OyYjOTtjMC43MDgtMC4yOTYsMS40MTMtMC42ODYsMi4wNTMtMS4xNzNjMC42NDMtMC40ODQsMS4yMi0xLjA1OCwxLjcwMS0xLjY3NmMwLjQ4MS0wLjYxNywwLjg2OS0xLjI3NCwxLjE2NC0xLjkzMSYjMTA7JiM5OyYjOTtjMC4yOTktMC42NTYsMC41MTUtMS4zMTEsMC42NzktMS45NTFjMC4xNTUtMC42MzgsMC4yNTktMS4yNjQsMC4zMi0xLjg3MmMwLjEyMi0xLjIxOSwwLjA5Ny0yLjM2OSwwLjAwOC0zLjQ3OUw5OC43NSw2Ny43MiYjMTA7JiM5OyYjOTtsLTAuMDQ4LTAuNDNjLTAuMDE3LTAuMTQtMC4wMzEtMC4yOTMtMC4wNS0wLjQybC0wLjA1Ni0wLjM2M2wtMC4wMjgtMC4xODJsLTAuMDE0LTAuMDlsLTAuMDA3LTAuMDQ1bC0wLjAwMy0wLjAyM2wtMC4wMDItMC4wMTEmIzEwOyYjOTsmIzk7YzAsMC4wMDUtMC4wMDctMC4wODMtMC4wMDQtMC4wNTFsLTAuMDU3LTAuMzQ4bC0wLjExMS0wLjY5NmMtMC4xNDctMC45MjktMC4yNzItMS44NTctMC4zNzQtMi43ODcmIzEwOyYjOTsmIzk7Yy0wLjA2LTAuNDY2LTAuMDg3LTAuOTI4LTAuMTMyLTEuMzk0Yy0wLjAzOS0wLjQ2NS0wLjA2LTAuOTI3LTAuMDkzLTEuMzkzYy0wLjAzNy0wLjkyNC0wLjA2Ny0xLjg1NC0wLjAzNC0yLjc3MiYjMTA7JiM5OyYjOTtjMC4wMDUtMC40NjIsMC4wNDUtMC45MTYsMC4wNjYtMS4zNzVjMC4wNDItMC40NTIsMC4wNzMtMC45MTIsMC4xMzktMS4zNmMwLjExNy0wLjksMC4yODYtMS43OSwwLjUzNC0yLjY0NiYjMTA7JiM5OyYjOTtjMC4yNDctMC44NTYsMC41NzctMS42NzcsMS4wMDQtMi40MzFjMC40Mi0wLjc1OSwwLjk1NC0xLjQ0MiwxLjYxMS0xLjk3MmMwLjMyNy0wLjI2OCwwLjY4OC0wLjQ4OCwxLjA3NC0wLjY1MyYjMTA7JiM5OyYjOTtjMC4xOTItMC4wODMsMC4zOTItMC4xNTMsMC41OTYtMC4yMDdjMC4xMDItMC4wMjksMC4xODktMC4wNDIsMC4yODctMC4wNjZjMC4xMDctMC4wMTgsMC4yNC0wLjAyNSwwLjM1OS0wLjAzOWwwLjAxNi0wLjAwMSYjMTA7JiM5OyYjOTtjMC4yNTEtMC4wMjgsMC40NTctMC4yMjcsMC40ODUtMC40ODhjMC4wMzItMC4zMDItMC4xODctMC41NzMtMC40ODktMC42MDVjLTAuMTI1LTAuMDEzLTAuMjM2LTAuMDMyLTAuMzczLTAuMDQxJiMxMDsmIzk7JiM5O2MtMC4xNDYtMC4wMDMtMC4zMDItMC4wMTEtMC40NDItMC4wMDRjLTAuMjgsMC4wMS0wLjU2MSwwLjA0Mi0wLjgzNywwLjA5NWMtMC41NTEsMC4xMDgtMS4wODYsMC4zMDEtMS41ODMsMC41NTgmIzEwOyYjOTsmIzk7Yy0wLjk5OSwwLjUxLTEuODU5LDEuMjQ2LTIuNTc0LDIuMDc0Yy0wLjcxNiwwLjgzMS0xLjI5NiwxLjc1NC0xLjc4MiwyLjcwOGMtMC40ODQsMC45NTUtMC44NzMsMS45NDMtMS4yLDIuOTQ0JiMxMDsmIzk7JiM5O2MtMC4xNzIsMC41LTAuMzA1LDEuMDA0LTAuNDQ5LDEuNTFjLTAuMTI0LDAuNTA1LTAuMjUyLDEuMDE1LTAuMzUxLDEuNTI0Yy0wLjIxNywxLjAyLTAuMzY1LDIuMDQyLTAuNTAzLDMuMDY3JiMxMDsmIzk7JiM5O2MtMC4xMjIsMS4wMjMtMC4yMTIsMi4wNDktMC4yNywzLjA3MmMtMC4wNTksMS4wMjMtMC4wOTIsMi4wNDUtMC4xLDMuMDY1bC0wLjAwMSwwLjc2NXYwLjM4M2MwLjAwMywwLjA0LTAuMDA0LTAuMDQtMC4wMDMtMC4wMjgmIzEwOyYjOTsmIzk7djAuMDEydjAuMDIzbC0wLjAwMSwwLjA0NnYwLjA5MmwtMC4wMDEsMC4xODRsLTAuMDAzLDAuMzY3Yy0wLjAwMSwwLjExNy0wLjAxLDAuMjA3LTAuMDE0LDAuMzEybC0wLjAxNywwLjMwMmwtMC4wMjQsMC4zMTUmIzEwOyYjOTsmIzk7Yy0wLjA2NSwwLjg0Mi0wLjE4NywxLjY1LTAuMzg1LDIuMzZjLTAuMDk5LDAuMzU0LTAuMjE1LDAuNjgyLTAuMzM5LDAuOThjLTAuMTMsMC4yOS0wLjI3MSwwLjU0OC0wLjQyLDAuNzYmIzEwOyYjOTsmIzk7Yy0wLjMwMiwwLjQzLTAuNjA3LDAuNjQ0LTAuOTI3LDAuNzgyYy0wLjMxOCwwLjEzNi0wLjcxNCwwLjIyNy0xLjI1MiwwLjI0NGMtMC41MzIsMC4wMTktMS4xNzgtMC4wNDUtMS44NjUtMC4xOTMmIzEwOyYjOTsmIzk7Yy0wLjA5OC0wLjAyLTAuMTk2LTAuMDQxLTAuMjk2LTAuMDY0YzAsMC0yLjUwNy0wLjg4NC0xLjY4My0zLjc1M2MwLjU1OS0xLjAzOSwxLjU4Mi0yLjEwOSwzLjQ2OS0yLjM4OCYjMTA7JiM5OyYjOTtjMCwwLDQuMDI1LTMxLjE2OC0yMS4xOTYtNTEuMjAzYy0wLjAxNi0wLjAxMi0wLjAzMywwLTAuMDMzLDBDNDIuNzQ2LDM1Ljc3NCw0Ni43NzEsNjYuOTQyLDQ2Ljc3MSw2Ni45NDImIzEwOyYjOTsmIzk7YzIuMDEyLDAuMjk3LDMuMDQ0LDEuNDk1LDMuNTc0LDIuNTk0YzAuNjA0LDIuNTIxLTEuNDI0LDMuNDIzLTEuNzA0LDMuNTM0Yy0wLjExNywwLjAyOC0wLjIzMywwLjA1NS0wLjM0NywwLjA3NyYjMTA7JiM5OyYjOTtjLTAuNjg4LDAuMTQ4LTEuMzM0LDAuMjEyLTEuODY2LDAuMTkzYy0wLjUzNy0wLjAxOC0wLjkzMy0wLjEwOC0xLjI1Mi0wLjI0NGMtMC4zMTktMC4xMzktMC42MjUtMC4zNTMtMC45MjYtMC43ODImIzEwOyYjOTsmIzk7Yy0wLjE0OC0wLjIxMi0wLjI5LTAuNDctMC40Mi0wLjc2Yy0wLjEyNC0wLjI5OS0wLjI0LTAuNjI2LTAuMzM5LTAuOThjLTAuMTk3LTAuNzEtMC4zMTgtMS41MTktMC4zODQtMi4zNmwtMC4wMjQtMC4zMTUmIzEwOyYjOTsmIzk7bC0wLjAxNi0wLjMwMmMtMC4wMDUtMC4xMDQtMC4wMTMtMC4xOTQtMC4wMTUtMC4zMTJsLTAuMDAyLTAuMzY3bC0wLjAwMS0wLjE4NGwtMC4wMDEtMC4wOTJ2LTAuMDQ2bDAtMC4wMjN2LTAuMDEyJiMxMDsmIzk7JiM5O2MwLjAwMS0wLjAxMi0wLjAwNiwwLjA2OC0wLjAwMywwLjAyOHYtMC4zODNsLTAuMDAxLTAuNzY1Yy0wLjAwOC0xLjAyLTAuMDQtMi4wNDItMC4xLTMuMDY1Yy0wLjA1OC0xLjAyMy0wLjE0OC0yLjA0OS0wLjI3LTMuMDcyJiMxMDsmIzk7JiM5O2MtMC4xMzgtMS4wMjUtMC4yODYtMi4wNDctMC41MDMtMy4wNjdjLTAuMDk3LTAuNTA5LTAuMjI2LTEuMDE5LTAuMzUxLTEuNTI0Yy0wLjE0My0wLjUwNi0wLjI3Ny0xLjAxLTAuNDQ4LTEuNTEmIzEwOyYjOTsmIzk7Yy0wLjMyOC0xLTAuNzE2LTEuOTg5LTEuMjAxLTIuOTQ0Yy0wLjQ4NS0wLjk1My0xLjA2Ni0xLjg3Ni0xLjc4Mi0yLjcwOGMtMC43MTQtMC44MjgtMS41NzUtMS41NjQtMi41NzUtMi4wNzQmIzEwOyYjOTsmIzk7Yy0wLjQ5Ny0wLjI1Ny0xLjAzMS0wLjQ0OS0xLjU4My0wLjU1OGMtMC4yNzYtMC4wNTItMC41NTYtMC4wODUtMC44MzctMC4wOTVjLTAuMTQtMC4wMDctMC4yOTcsMC4wMDEtMC40NDIsMC4wMDQmIzEwOyYjOTsmIzk7Yy0wLjEzNywwLjAwOS0wLjI0OCwwLjAyNy0wLjM3MywwLjA0MWMtMC4zMDIsMC4wMzItMC41MjEsMC4zMDMtMC40ODksMC42MDVjMC4wMjcsMC4yNjEsMC4yMzQsMC40NiwwLjQ4NSwwLjQ4OGwwLjAxNiwwLjAwMSYjMTA7JiM5OyYjOTtjMC4xMTksMC4wMTQsMC4yNTIsMC4wMjEsMC4zNTksMC4wMzljMC4wOTgsMC4wMjQsMC4xODYsMC4wMzcsMC4yODcsMC4wNjZjMC4yMDQsMC4wNTQsMC40MDIsMC4xMjMsMC41OTUsMC4yMDcmIzEwOyYjOTsmIzk7YzAuMzg2LDAuMTY1LDAuNzQ4LDAuMzg1LDEuMDc0LDAuNjUzYzAuNjU4LDAuNTMsMS4xOTEsMS4yMTMsMS42MTEsMS45NzJjMC40MjcsMC43NTMsMC43NTYsMS41NzUsMS4wMDQsMi40MzEmIzEwOyYjOTsmIzk7YzAuMjQ4LDAuODU2LDAuNDE3LDEuNzQ2LDAuNTM0LDIuNjQ2YzAuMDY2LDAuNDQ4LDAuMDk4LDAuOTA4LDAuMTM5LDEuMzZjMC4wMjEsMC40NiwwLjA2MiwwLjkxMywwLjA2NSwxLjM3NSYjMTA7JiM5OyYjOTtjMC4wMzQsMC45MTcsMC4wMDQsMS44NDgtMC4wMzIsMi43NzJjLTAuMDM0LDAuNDY2LTAuMDU1LDAuOTI4LTAuMDk0LDEuMzkzYy0wLjA0NSwwLjQ2Ni0wLjA3MiwwLjkyOC0wLjEzMiwxLjM5NCYjMTA7JiM5OyYjOTtjLTAuMTAxLDAuOTMtMC4yMjYsMS44NTgtMC4zNzQsMi43ODdsLTAuMTEyLDAuNjk2bC0wLjA1NSwwLjM0OGMwLjAwMi0wLjAzMi0wLjAwNSwwLjA1Ni0wLjAwNSwwLjA1MWwtMC4wMDEsMC4wMTFsLTAuMDAzLDAuMDIzJiMxMDsmIzk7JiM5O2wtMC4wMDcsMC4wNDVsLTAuMDE1LDAuMDlsLTAuMDI4LDAuMTgybC0wLjA1NSwwLjM2M2MtMC4wMTgsMC4xMjctMC4wMzQsMC4yODEtMC4wNSwwLjQybC0wLjA0NywwLjQzbC0wLjAzNiwwLjQxNyYjMTA7JiM5OyYjOTtjLTAuMDg5LDEuMTA5LTAuMTE2LDIuMjYsMC4wMDcsMy40NzljMC4wNjIsMC42MDgsMC4xNjUsMS4yMzQsMC4zMjEsMS44NzJjMC4xNjQsMC42NDEsMC4zNzksMS4yOTUsMC42NzcsMS45NTEmIzEwOyYjOTsmIzk7YzAuMjk2LDAuNjU2LDAuNjg0LDEuMzEzLDEuMTY2LDEuOTMxYzAuNDgsMC42MTgsMS4wNTgsMS4xOTEsMS43LDEuNjc2YzAuNjQxLDAuNDg3LDEuMzQ1LDAuODc3LDIuMDU0LDEuMTczJiMxMDsmIzk7JiM5O2MwLjcxLDAuMjk3LDEuNDI3LDAuNTAzLDIuMTI2LDAuNjQ0YzAuMjI1LDAuMDQ1LDAuNDQ4LDAuMDgxLDAuNjY4LDAuMTEzYy0wLjA0OCwwLjAxOS0wLjA5NiwwLjAzOC0wLjE0NCwwLjA1NSYjMTA7JiM5OyYjOTtjLTEuMDY0LDAuMzg2LTIuMTcyLDAuNjMtMy4zMTgsMC42ODJjLTEuMTQ1LDAuMDUzLTIuMzMtMC4wNi0zLjUxMi0wLjM1NmMtMS4xODEtMC4yOTItMi4zNjEtMC43NzItMy40NTEtMS4zNzYmIzEwOyYjOTsmIzk7Yy0wLjI2OC0wLjE0OS0wLjUzNy0wLjMxNC0wLjc2MS0wLjQ2MWwtMC4wNzMtMC4wNDhjLTAuMDAzLTAuMDAxLTAuMDEzLTAuMDA5LTAuMDA5LTAuMDAzYzAsMC4wMDEsMC4wMDIsMC4wMDIsMC4wMDIsMC4wMDMmIzEwOyYjOTsmIzk7Yy0wLjA0Mi0wLjAzOCwwLjA0MSwwLjA0LDAuMDMyLDAuMDMzTDM0LjY5Myw3OS41bC0wLjAxOC0wLjAxNGMtMC4wNS0wLjAzOS0wLjEwOS0wLjA4OS0wLjE2Ny0wLjEzOCYjMTA7JiM5OyYjOTtjLTAuMTE3LTAuMS0wLjIzOC0wLjIwNi0wLjM1Ny0wLjMxNmMtMC40NzktMC40NDEtMC45NDUtMC45MjMtMS4zODMtMS40MjNjLTAuODgtMS4wMDEtMS42NTMtMi4wOTMtMi4yMzgtMy4yNDkmIzEwOyYjOTsmIzk7Yy0wLjU5MS0xLjE1NC0wLjk5Mi0yLjM4MS0xLjA4My0zLjY0Yy0wLjA5NC0xLjI1NiwwLjEzNi0yLjU0NiwwLjY4Ni0zLjc3N2MwLjI3NC0wLjYxNSwwLjYyMy0xLjIxMywxLjAzMi0xLjc4NGwwLjMxOC0wLjQyMiYjMTA7JiM5OyYjOTtsMC4zMzYtMC40MTVsMC4zNDgtMC4zOTlsMC4zODYtMC40MDhjMC4yMDktMC4yMjEsMC4yLTAuNTctMC4wMjEtMC43NzljLTAuMTkxLTAuMTgxLTAuNDc4LTAuMTk4LTAuNjg4LTAuMDU3bC0wLjQ2NiwwLjMxNCYjMTA7JiM5OyYjOTtsLTAuNDc5LDAuMzUyYy0wLjE1NiwwLjEyMS0wLjMwOCwwLjI0NC0wLjQ2MSwwLjM2OGwtMC40NDYsMC4zOTFjLTAuNTg1LDAuNTM3LTEuMTMxLDEuMTM3LTEuNjE0LDEuODA1JiMxMDsmIzk7JiM5O2MtMC45NzksMS4zMjUtMS42MzIsMi45NzYtMS44MzYsNC42OTZjLTAuMjExLDEuNzIzLDAuMDEsMy40NzEsMC40ODMsNS4wOTNjMC40ODIsMS42MjUsMS4xOTgsMy4xNDEsMi4wNTIsNC41NTkmIzEwOyYjOTsmIzk7YzAuNDIzLDAuNjk2LDAuODgxLDEuMzY2LDEuMzg0LDIuMDIzYy0wLjE2NSwwLjAzOC0wLjMyOSwwLjA3Ni0wLjQ5MywwLjExOWMtMi4wMDMsMC41MjMtMy45OCwxLjM2NC01LjgwMywyLjczMSYjMTA7JiM5OyYjOTtjLTAuOTA2LDAuNjg2LTEuNzczLDEuNTI2LTIuNDk4LDIuNTY0Yy0wLjcyMiwxLjAzNC0xLjI3NCwyLjMxLTEuNDcyLDMuNjU5Yy0wLjIxLDEuMzUxLTAuMDIzLDIuNzEzLDAuMzY4LDMuODczJiMxMDsmIzk7JiM5O2MwLjIwMiwwLjU3OCwwLjQ0OSwxLjExNiwwLjcyNSwxLjYxNGMwLjI4MywwLjQ4OSwwLjU4MywwLjk1NywwLjkxMiwxLjM3YzAuMzIzLDAuNDI1LDAuNjY4LDAuODA3LDEuMDE3LDEuMTc2bDAuMjg1LDAuMjg0JiMxMDsmIzk7JiM5O2wwLjE0MywwLjE0MmMwLjA0OCwwLjA0OCwwLjA5NywwLjA5NiwwLjEzMywwLjEyN2wwLjUxNiwwLjQ2YzAuNzA0LDAuNjA3LDEuNDM5LDEuMTcxLDIuMTg5LDEuNjk5JiMxMDsmIzk7JiM5O2MxLjUwOSwxLjA0NywzLjA5NCwxLjkyNyw0LjY5NCwyLjY3NGMxLjQ2NSwwLjY4OCwyLjk0NCwxLjI2LDQuNDAxLDEuODA1YzAuMDA4LDAuMDIxLDAuMDE2LDAuMDQxLDAuMDI0LDAuMDYybDAuMTE2LDAuMjczJiMxMDsmIzk7JiM5O2MwLjA0MiwwLjA4OSwwLjA5MSwwLjE3NCwwLjEzOCwwLjI2MmMwLjA5NCwwLjE3MywwLjE5MSwwLjM0NCwwLjI5MSwwLjUxNGwwLjA3NSwwLjEyNmwwLjA4NCwwLjExOGwwLjE3MSwwLjIzNiYjMTA7JiM5OyYjOTtjMC4xMTYsMC4xNTQsMC4yMzEsMC4zMTIsMC4zNTIsMC40NmMxLjAwMiwxLjE2NywyLjI2OSwxLjk3LDMuNTU5LDIuNDQ0YzEuMjk1LDAuNDc3LDIuNjI0LDAuNjMyLDMuODg1LDAuNTcyJiMxMDsmIzk7JiM5O2MwLjE1Ny0wLjAwOCwwLjMxNi0wLjAxMiwwLjQ3My0wLjAyNWwwLjQ2Mi0wLjA2bDAuNDYtMC4wNjRjMC4xNTItMC4wMjMsMC4zLTAuMDYyLDAuNDQ5LTAuMDk1bDAuNDQ1LTAuMTAyJiMxMDsmIzk7JiM5O2MwLjA3NS0wLjAyLDAuMTQ2LTAuMDMyLDAuMjI0LTAuMDU2bDAuMjM2LTAuMDcybDAuNDY3LTAuMTQ5bDAuMjMyLTAuMDc3YzAuMDc3LTAuMDI2LDAuMTYtMC4wNTQsMC4yMDctMC4wNzdsMC42NjUtMC4yODcmIzEwOyYjOTsmIzk7bDAuMDgzLTAuMDM2YzAuMDQ3LTAuMDE5LTAuMDc3LDAuMDI3LDAuMTExLTAuMDQ0bDAuMDE4LTAuMDA4bDAuMDM3LTAuMDE3bDAuMTQ2LTAuMDY4bDAuMjkyLTAuMTM3JiMxMDsmIzk7JiM5O2MwLjE5NC0wLjA5NywwLjM5My0wLjE3OSwwLjU5MS0wLjI2MmMwLjE5OS0wLjA4MywwLjM5Ny0wLjE3MiwwLjYwMS0wLjI0MmMwLjgwNy0wLjMxMywxLjYzOC0wLjU2MSwyLjQ4Mi0wLjc0NCYjMTA7JiM5OyYjOTtjMS42ODYtMC4zNjUsMy40NDEtMC41MDQsNS4xMjYtMC4yNTRjMC44NCwwLjEyNSwxLjY2LDAuMzQ2LDIuNDE2LDAuNjhjMC43NTUsMC4zMzYsMS40NTEsMC43ODIsMi4wMDQsMS4zNjMmIzEwOyYjOTsmIzk7YzAuMDY4LDAuMDc0LDAuMTQxLDAuMTQ1LDAuMjA4LDAuMjIxbDAuMTg1LDAuMjM3bDAuMDk0LDAuMTE5bDAuMDgxLDAuMTI3bDAuMTYzLDAuMjU2YzAuMTg4LDAuMzU3LDAuMzY2LDAuNzMxLDAuNDY1LDEuMTM4JiMxMDsmIzk7JiM5O2MwLjAyNSwwLjEwMiwwLjA2LDAuMjAyLDAuMDc5LDAuMzA2bDAuMDUyLDAuMzE1bDAuMDI3LDAuMTU4YzAuMDA2LDAuMDUzLDAuMDA3LDAuMTA4LDAuMDEyLDAuMTYxbDAuMDI0LDAuMzI1JiMxMDsmIzk7JiM5O2MwLjAxMywwLjIxNy0wLjAwMiwwLjQyMiwwLjAwMSwwLjYzOGMtMC4wMiwwLjIzMy0wLjA1MywwLjQ3OS0wLjA3OCwwLjcxOHYwLjAwNmMtMC4wMzMsMC4zMDMsMC4xODYsMC41NzMsMC40ODgsMC42MDUmIzEwOyYjOTsmIzk7YzAuMjY4LDAuMDI4LDAuNTExLTAuMTQxLDAuNTg1LTAuMzkxYzAuMDY5LTAuMjMzLDAuMTQzLTAuNDU3LDAuMjA5LTAuNjk5YzAuMDUyLTAuMjYyLDAuMTE5LTAuNTMzLDAuMTUyLTAuNzk4bDAuMDQ0LTAuMzk3JiMxMDsmIzk7JiM5O2MwLjAwNy0wLjA2NiwwLjAxNS0wLjEzMywwLjAxOS0wLjJsMC4wMDMtMC4yMDJsMC4wMDItMC40MDZjLTAuMDAxLTAuMTM3LTAuMDIxLTAuMjcyLTAuMDMxLTAuNDA4JiMxMDsmIzk7JiM5O2MtMC4wMzktMC41NDktMC4xNzktMS4wOTItMC4zNTUtMS42MjVsLTAuMTYtMC4zOWwtMC4wODMtMC4xOTZsLTAuMDk4LTAuMTg3bC0wLjIwMS0wLjM3NWMtMC4wNzItMC4xMjEtMC4xNTItMC4yMzUtMC4yMy0wLjM1NCYjMTA7JiM5OyYjOTtjLTAuMTQ5LTAuMjQzLTAuMzMzLTAuNDU0LTAuNTA5LTAuNjc2Yy0wLjA4Ni0wLjExNS0wLjE4OC0wLjIwOC0wLjI4NC0wLjMxMmMtMC4wOTgtMC4xMDEtMC4xOTItMC4yMDctMC4yOTQtMC4zMDMmIzEwOyYjOTsmIzk7Yy0wLjQxMy0wLjM3Ni0wLjg0OS0wLjczMS0xLjMxNS0xLjAyNWMtMC45MjctMC42MDQtMS45MzQtMS4wNTQtMi45NjYtMS4zODFjLTIuMDY5LTAuNjQ3LTQuMjM1LTAuODM3LTYuMzYzLTAuNjkyJiMxMDsmIzk7JiM5O2MtMS4wNjUsMC4wNzEtMi4xMjYsMC4yMjItMy4xNjgsMC40NTZjLTAuMjYzLDAuMDUxLTAuNTIsMC4xMjEtMC43NzksMC4xODdjLTAuMjYsMC4wNjQtMC41MiwwLjEzMS0wLjc3NCwwLjIxMmwtMC4zODQsMC4xMTcmIzEwOyYjOTsmIzk7bC0wLjE5MiwwLjA1OWwtMC4wNDgsMC4wMTZsLTAuMDI0LDAuMDA3YzAuMTczLTAuMDY1LDAuMDM2LTAuMDE1LDAuMDY5LTAuMDI3bC0wLjA4NywwLjAyM2wtMC42OTksMC4xOTMmIzEwOyYjOTsmIzk7Yy0wLjA2NSwwLjAyMS0wLjEsMC4wMjEtMC4xMzksMC4wMjVsLTAuMTE4LDAuMDE1bC0wLjIzMiwwLjAzM2wtMC4xMTUsMC4wMThjLTAuMDM5LDAuMDA2LTAuMDg4LDAuMDA3LTAuMTMyLDAuMDExbC0wLjI2NywwLjAxOSYjMTA7JiM5OyYjOTtjLTAuMDg4LDAuMDA1LTAuMTc3LDAuMDE5LTAuMjY1LDAuMDE4bC0wLjI2LTAuMDA2bC0wLjI1OC0wLjAwMmMtMC4wODQtMC4wMDctMC4xNjctMC4wMjEtMC4yNS0wLjAyOSYjMTA7JiM5OyYjOTtjLTAuNjYzLTAuMDY4LTEuMjY3LTAuMjYxLTEuNzQ4LTAuNTMzYy0wLjQ4Mi0wLjI3MS0wLjgzLTAuNjI1LTEuMDI3LTAuOTcxYy0wLjE4Ni0wLjM1Ny0wLjIyOS0wLjY4OS0wLjE5NS0xLjA0OSYjMTA7JiM5OyYjOTtjMC4wNC0wLjM1OSwwLjE3Mi0wLjc3OCwwLjQ0NS0xLjI0NGMwLjI3My0wLjQ2NCwwLjY2Ny0wLjk1NiwxLjE1Ni0xLjQzNGMxLjAxMS0wLjk0NywyLjMzOC0xLjgzLDMuODEtMi41NjVsMC4yNzEtMC4xNDImIzEwOyYjOTsmIzk7bDAuMjg3LTAuMTMxbDAuNTczLTAuMjZjMC4zNzItMC4xODMsMC43ODQtMC4zMjUsMS4xNzUtMC40ODlsMS4zNDktMC41NTRsMC42Ny0wLjI3NWwwLjA4My0wLjAzM2wwLjA5NS0wLjA0NWwwLjE5My0wLjA4OGwwLDAmIzEwOyYjOTsmIzk7bDAuMDAxLTAuMDAxbDAuMzg0LTAuMTc5YzAuNDY5LTAuMjE5LDAuOTQ0LTAuNDM4LDEuMzg1LTAuNjcyYzIuOTc2LTEuMzUsOS4yMDYtMy44MzIsMTQuNzg4LTMuODMyczExLjgxMiwyLjQ4MiwxNC43ODksMy44MzImIzEwOyYjOTsmIzk7YzAuNDM5LDAuMjM0LDAuOTE1LDAuNDUzLDEuMzg0LDAuNjcybDAuMzg2LDAuMThsMC4xOTIsMC4wODhsMC4wOTYsMC4wNDRsMC4wODMsMC4wMzRsMC42NywwLjI3NWwxLjM0OSwwLjU1NCYjMTA7JiM5OyYjOTtjMC4zOTIsMC4xNjQsMC44MDQsMC4zMDgsMS4xNzYsMC40ODlsMC41NzIsMC4yNmwwLjI4NiwwLjEzMWwwLjI3MSwwLjE0MmMxLjQ3MiwwLjczNSwyLjc5OSwxLjYxOCwzLjgxMSwyLjU2NSYjMTA7JiM5OyYjOTtjMC40ODksMC40NzgsMC44ODMsMC45NywxLjE1NiwxLjQzNGMwLjI3MywwLjQ2NiwwLjQwNCwwLjg4NSwwLjQ0NCwxLjI0NGMwLjAzNSwwLjM1OS0wLjAwOSwwLjY5MS0wLjE5NCwxLjA0OSYjMTA7JiM5OyYjOTtjLTAuMTk3LDAuMzQ2LTAuNTQ1LDAuNjk5LTEuMDI3LDAuOTcxYy0wLjQ4LDAuMjcyLTEuMDg1LDAuNDY1LTEuNzQ4LDAuNTMzYy0wLjA4MywwLjAwOS0wLjE2NiwwLjAyMi0wLjI1LDAuMDI5bC0wLjI1OCwwLjAwMiYjMTA7JiM5OyYjOTtsLTAuMjYxLDAuMDA2Yy0wLjA4NiwwLjAwMS0wLjE3Ni0wLjAxMy0wLjI2NC0wLjAxOGwtMC4yNjgtMC4wMTljLTAuMDQ0LTAuMDA0LTAuMDkzLTAuMDA1LTAuMTMxLTAuMDExbC0wLjExNS0wLjAxOGwtMC4yMzEtMC4wMzMmIzEwOyYjOTsmIzk7bC0wLjExOC0wLjAxNWMtMC4wMzktMC4wMDQtMC4wNzMtMC4wMDUtMC4xMzktMC4wMjVsLTAuNjk5LTAuMTkzbC0wLjA4Ny0wLjAyM2MwLjAzMywwLjAxMy0wLjEwNS0wLjAzOCwwLjA2OCwwLjAyN2wtMC4wMjQtMC4wMDcmIzEwOyYjOTsmIzk7bC0wLjA0OC0wLjAxNmwtMC4xOTItMC4wNTlsLTAuMzg0LTAuMTE3Yy0wLjI1NS0wLjA4MS0wLjUxNC0wLjE0Ny0wLjc3My0wLjIxMmMtMC4yNi0wLjA2NS0wLjUxNy0wLjEzNi0wLjc4LTAuMTg3JiMxMDsmIzk7JiM5O2MtMS4wNDItMC4yMzQtMi4xMDMtMC4zODUtMy4xNjgtMC40NTZjLTIuMTI5LTAuMTQ1LTQuMjk1LDAuMDQ2LTYuMzYzLDAuNjkyYy0xLjAzMiwwLjMyNy0yLjAzOSwwLjc3Ni0yLjk2NiwxLjM4MSYjMTA7JiM5OyYjOTtjLTAuNDY3LDAuMjk0LTAuOTAzLDAuNjQ5LTEuMzE1LDEuMDI1Yy0wLjEwMiwwLjA5Ni0wLjE5NiwwLjIwMi0wLjI5NCwwLjMwM2MtMC4wOTUsMC4xMDQtMC4xOTcsMC4xOTctMC4yODMsMC4zMTImIzEwOyYjOTsmIzk7Yy0wLjE3NiwwLjIyMi0wLjM2LDAuNDMzLTAuNTEsMC42NzZjLTAuMDc4LDAuMTE5LTAuMTU3LDAuMjMzLTAuMjI5LDAuMzU0bC0wLjIwMSwwLjM3NWwtMC4wOTgsMC4xODdsLTAuMDgyLDAuMTk2bC0wLjE2MSwwLjM5JiMxMDsmIzk7JiM5O2MtMC4xNzYsMC41MzMtMC4zMTUsMS4wNzYtMC4zNTQsMS42MjVjLTAuMDExLDAuMTM2LTAuMDMsMC4yNzEtMC4wMywwLjQwOGwwLjAwMiwwLjQwNmwwLjAwMywwLjIwMiYjMTA7JiM5OyYjOTtjMC4wMDMsMC4wNjcsMC4wMTIsMC4xMzQsMC4wMTksMC4ybDAuMDQ0LDAuMzk3YzAuMDMzLDAuMjY1LDAuMTAyLDAuNTM2LDAuMTUyLDAuNzk4YzAuMDY2LDAuMjQyLDAuMTQxLDAuNDY2LDAuMjA5LDAuNjk5JiMxMDsmIzk7JiM5O2MwLjA3NSwwLjI1LDAuMzE3LDAuNDE5LDAuNTg2LDAuMzkxYzAuMzAyLTAuMDMyLDAuNTIxLTAuMzA0LDAuNDg4LTAuNjA1bC0wLjAwMS0wLjAwNmMtMC4wMjUtMC4yMzgtMC4wNTktMC40ODQtMC4wNzctMC43MTgmIzEwOyYjOTsmIzk7YzAuMDAyLTAuMjE2LTAuMDEzLTAuNDIxLDAuMDAxLTAuNjM4bDAuMDIzLTAuMzI1YzAuMDA1LTAuMDUzLDAuMDA2LTAuMTA4LDAuMDEyLTAuMTYxbDAuMDI3LTAuMTU4bDAuMDUxLTAuMzE1JiMxMDsmIzk7JiM5O2MwLjAyMS0wLjEwNCwwLjA1NS0wLjIwNCwwLjA3OS0wLjMwNmMwLjA5OS0wLjQwNiwwLjI3Ny0wLjc4MSwwLjQ2Ni0xLjEzOGwwLjE2NC0wLjI1NmwwLjA3OS0wLjEyN2wwLjA5NS0wLjExOWwwLjE4Ni0wLjIzNyYjMTA7JiM5OyYjOTtjMC4wNjYtMC4wNzUsMC4xMzktMC4xNDYsMC4yMDctMC4yMjFjMC41NTQtMC41ODEsMS4yNS0xLjAyNywyLjAwNC0xLjM2M2MwLjc1Ny0wLjMzNCwxLjU3Ni0wLjU1NSwyLjQxNy0wLjY4JiMxMDsmIzk7JiM5O2MxLjY4NS0wLjI1MSwzLjQ0LTAuMTExLDUuMTI2LDAuMjU0YzAuODQ0LDAuMTg0LDEuNjc1LDAuNDMxLDIuNDgsMC43NDRjMC4yMDQsMC4wNywwLjQwMiwwLjE1OSwwLjYwMiwwLjI0MiYjMTA7JiM5OyYjOTtzMC4zOTcsMC4xNjUsMC41OTEsMC4yNjJsMC4yOTMsMC4xMzdsMC4xNDYsMC4wNjhsMC4wMzYsMC4wMTdsMC4wMTksMC4wMDhjMC4xODgsMC4wNzEsMC4wNjQsMC4wMjUsMC4xMTEsMC4wNDNsMC4wODMsMC4wMzcmIzEwOyYjOTsmIzk7bDAuNjY1LDAuMjg3YzAuMDQ2LDAuMDIzLDAuMTI5LDAuMDUxLDAuMjA3LDAuMDc3bDAuMjMxLDAuMDc2bDAuNDY3LDAuMTVsMC4yMzUsMC4wNzJjMC4wNzgsMC4wMjMsMC4xNDksMC4wMzYsMC4yMjQsMC4wNTYmIzEwOyYjOTsmIzk7bDAuNDQ2LDAuMTAyYzAuMTQ4LDAuMDMyLDAuMjk2LDAuMDcsMC40NDgsMC4wOTVsMC40NiwwLjA2NGwwLjQ2MywwLjA2YzAuMTU2LDAuMDE0LDAuMzE1LDAuMDE4LDAuNDc0LDAuMDI1JiMxMDsmIzk7JiM5O2MxLjI2LDAuMDYsMi41ODktMC4wOTYsMy44ODQtMC41NzJjMS4yOTEtMC40NzUsMi41NTgtMS4yNzcsMy41Ni0yLjQ0NGMwLjEyMS0wLjE0OCwwLjIzNi0wLjMwNiwwLjM1My0wLjQ2bDAuMTcxLTAuMjM2JiMxMDsmIzk7JiM5O2wwLjA4NS0wLjExOGwwLjA3NC0wLjEyNmMwLjA5OS0wLjE3LDAuMTk2LTAuMzQxLDAuMjktMC41MTRjMC4wNDctMC4wODgsMC4wOTctMC4xNzMsMC4xMzgtMC4yNjJsMC4xMTUtMC4yNzMmIzEwOyYjOTsmIzk7YzAuMDA5LTAuMDIxLDAuMDE2LTAuMDQxLDAuMDI0LTAuMDYyYzEuNDU4LTAuNTQ1LDIuOTM3LTEuMTE3LDQuNDAyLTEuODA1YzEuNTk5LTAuNzQ4LDMuMTg0LTEuNjI3LDQuNjkzLTIuNjc0JiMxMDsmIzk7JiM5O2MwLjc0OS0wLjUyOCwxLjQ4NC0xLjA5MiwyLjE4OC0xLjY5OWwwLjUxNi0wLjQ2YzAuMDM2LTAuMDMxLDAuMDg2LTAuMDc5LDAuMTM0LTAuMTI3bDAuMTQzLTAuMTQybDAuMjg1LTAuMjg0JiMxMDsmIzk7JiM5O2MwLjM1LTAuMzY5LDAuNjkzLTAuNzUxLDEuMDE3LTEuMTc2YzAuMzI5LTAuNDEzLDAuNjMtMC44ODEsMC45MTItMS4zN2MwLjI3Ni0wLjQ5OCwwLjUyMy0xLjAzNiwwLjcyNi0xLjYxNCYjMTA7JiM5OyYjOTtDMTE1LjgyOCw5NC4wNjksMTE2LjAxNSw5Mi43MDcsMTE1LjgwNiw5MS4zNTZ6IE00Mi4xNDEsOTIuNDcyYy0wLjExNSwwLjA3OS0wLjIzLDAuMTUxLTAuMzQ0LDAuMjM1bC0wLjM0LDAuMjU2bC0wLjY3NiwwLjUxMyYjMTA7JiM5OyYjOTtjLTAuMTEzLDAuMDgzLTAuMjI0LDAuMTc1LTAuMzM0LDAuMjcxbC0wLjMzMSwwLjI4MmMtMC4yMTksMC4xOS0wLjQzOSwwLjM3My0wLjY1NSwwLjU3MmwtMC42MzUsMC42MjUmIzEwOyYjOTsmIzk7Yy0wLjEwNSwwLjEwNi0wLjIxLDAuMjA4LTAuMzEzLDAuMzE2bC0wLjMwNCwwLjM0NmMtMC4yLDAuMjMyLTAuNDAyLDAuNDU2LTAuNTk2LDAuNjk5Yy0wLjc2OSwwLjk4LTEuNDcyLDIuMDk2LTEuOTgzLDMuMzkzJiMxMDsmIzk7JiM5O2MtMC4yNTYsMC42NDctMC40NTMsMS4zNDktMC41NzEsMi4wODRsLTAuMDcxLDAuNTZjLTAuMDAyLDAuMDI1LTAuMDA1LDAuMDUyLTAuMDA4LDAuMDc2Yy0wLjY1NS0wLjQwNi0xLjI5Ni0wLjgxOS0xLjkxNy0xLjI0OSYjMTA7JiM5OyYjOTtjLTEuMzI5LTAuOTA0LTIuNTU3LTEuODg3LTMuNjY3LTIuOTUxYy0wLjU1MS0wLjUzNC0xLjA3OC0xLjA4Ni0xLjU2Ny0xLjY2M2wtMC4zNjQtMC40NDJjLTAuMDM5LTAuMDQ0LTAuMDU5LTAuMDc1LTAuMDgxLTAuMTA1JiMxMDsmIzk7JiM5O2wtMC4wNjYtMC4wOTVsLTAuMTM0LTAuMTg3Yy0wLjE4OC0wLjI3OC0wLjM2OC0wLjU1NC0wLjUxMS0wLjgzYy0wLjE1NS0wLjI3My0wLjI2NC0wLjU0My0wLjM2Ni0wLjgwMiYjMTA7JiM5OyYjOTtjLTAuMDktMC4yNTgtMC4xNTItMC41MDQtMC4xODktMC43MzFjLTAuMDU2LTAuNDU2LTAuMDE3LTAuODE1LDAuMTEtMS4xMThjMC4xMjUtMC4zMDIsMC4zMTYtMC41ODQsMC42MTctMC44ODImIzEwOyYjOTsmIzk7YzAuMy0wLjI5NiwwLjctMC41OTQsMS4xODQtMC44NTJjMC45NjUtMC41MjEsMi4yMDEtMC44NzgsMy40ODItMS4wNDNjMS4yODYtMC4xNjksMi42My0wLjEzNiwzLjkzLDAuMDYmIzEwOyYjOTsmIzk7YzEuMzAzLDAuMTkyLDIuNTY2LDAuNTY2LDMuNzI0LDEuMDk1YzAuMjkxLDAuMTMsMC41NzMsMC4yNzMsMC44NDksMC40MjVsMC40MDgsMC4yMzRsMC4zNSwwLjE4MWwwLjI1LDAuMTJsMC4yNDIsMC4xMSYjMTA7JiM5OyYjOTtjMC4zMjgsMC4xNDUsMC42NywwLjI3OCwxLjAyMywwLjM5OUw0Mi4xNDEsOTIuNDcyeiBNNjAuMzk1LDcwLjgwMWMtMS4xMjIsMC0yLjAzMS0wLjkwOS0yLjAzMS0yLjAzMSYjMTA7JiM5OyYjOTtjMC0xLjEyMSwwLjkwOS0yLjAzMSwyLjAzMS0yLjAzMXMyLjAzMSwwLjkxLDIuMDMxLDIuMDMxQzYyLjQyNiw2OS44OTIsNjEuNTE3LDcwLjgwMSw2MC4zOTUsNzAuODAxeiBNNzUuNjA1LDcwLjgwMSYjMTA7JiM5OyYjOTtjLTEuMTIyLDAtMi4wMzEtMC45MDktMi4wMzEtMi4wMzFjMC0xLjEyMSwwLjkwOS0yLjAzMSwyLjAzMS0yLjAzMXMyLjAzMSwwLjkxLDIuMDMxLDIuMDMxJiMxMDsmIzk7JiM5O0M3Ny42MzcsNjkuODkyLDc2LjcyOCw3MC44MDEsNzUuNjA1LDcwLjgwMXogTTEwOS44OCw5My42NDRjLTAuMDM3LDAuMjI4LTAuMDk5LDAuNDc0LTAuMTg4LDAuNzMxJiMxMDsmIzk7JiM5O2MtMC4xMDIsMC4yNTktMC4yMTIsMC41MjgtMC4zNjYsMC44MDJjLTAuMTQ0LDAuMjc2LTAuMzI0LDAuNTUyLTAuNTExLDAuODNsLTAuMTM0LDAuMTg3bC0wLjA2NiwwLjA5NSYjMTA7JiM5OyYjOTtjLTAuMDIxLDAuMDMtMC4wNDIsMC4wNjItMC4wOCwwLjEwNWwtMC4zNjQsMC40NDJjLTAuNDg5LDAuNTc3LTEuMDE3LDEuMTI5LTEuNTY3LDEuNjYzYy0xLjEwOSwxLjA2NC0yLjMzOCwyLjA0Ny0zLjY2NiwyLjk1MSYjMTA7JiM5OyYjOTtjLTAuNjIxLDAuNDMtMS4yNjIsMC44NDMtMS45MTYsMS4yNWMtMC4wMDMtMC4wMjUtMC4wMDYtMC4wNTItMC4wMDktMC4wNzdsLTAuMDcxLTAuNTZjLTAuMTE3LTAuNzM1LTAuMzE1LTEuNDM3LTAuNTcxLTIuMDg0JiMxMDsmIzk7JiM5O2MtMC41MTEtMS4yOTctMS4yMTMtMi40MTItMS45ODItMy4zOTNjLTAuMTkzLTAuMjQzLTAuMzk2LTAuNDY3LTAuNTk2LTAuNjk5bC0wLjMwMy0wLjM0NmMtMC4xMDQtMC4xMDgtMC4yMDktMC4yMS0wLjMxMy0wLjMxNiYjMTA7JiM5OyYjOTtsLTAuNjM3LTAuNjI1Yy0wLjIxNS0wLjE5OS0wLjQzNi0wLjM4Mi0wLjY1NC0wLjU3MmwtMC4zMzEtMC4yODJjLTAuMTA5LTAuMDk2LTAuMjIxLTAuMTg4LTAuMzM0LTAuMjcxbC0wLjY3Ni0wLjUxM2wtMC4zNC0wLjI1NiYjMTA7JiM5OyYjOTtjLTAuMTEzLTAuMDg0LTAuMjI5LTAuMTU2LTAuMzQ0LTAuMjM1bC0wLjE0Ny0wLjA5OWMwLjM1NC0wLjEyMSwwLjY5NS0wLjI1NSwxLjAyMy0wLjM5OWwwLjI0Mi0wLjExbDAuMjUtMC4xMmwwLjM1LTAuMTgxJiMxMDsmIzk7JiM5O2wwLjQwOC0wLjIzNGMwLjI3Ni0wLjE1MSwwLjU1OS0wLjI5NSwwLjg0OS0wLjQyNWMxLjE1OC0wLjUyOCwyLjQyMi0wLjkwMiwzLjcyNC0xLjA5NWMxLjMwMS0wLjE5NSwyLjY0NS0wLjIyOSwzLjkzLTAuMDYmIzEwOyYjOTsmIzk7YzEuMjgxLDAuMTY1LDIuNTE4LDAuNTIxLDMuNDgyLDEuMDQzYzAuNDgzLDAuMjU4LDAuODg1LDAuNTU2LDEuMTgzLDAuODUyYzAuMzAyLDAuMjk4LDAuNDkzLDAuNTgsMC42MTcsMC44ODImIzEwOyYjOTsmIzk7QzEwOS44OTcsOTIuODI4LDEwOS45MzcsOTMuMTg4LDEwOS44OCw5My42NDR6IiBmaWxsPSIjRkZGRkZGIi8+JiN4YTs8L2c+JiN4YTs8L3N2Zz4=;" vertex="1" parent="1">
          <mxGeometry x="271.25" y="366.25" width="37.5" height="37.5" as="geometry" />
        </mxCell>
        <mxCell id="SVO_0Hrm69eMG6_zyPty-10" value="Paypal PaaS" style="ellipse;shape=cloud;whiteSpace=wrap;html=1;" vertex="1" parent="1">
          <mxGeometry x="450" y="300" width="120" height="80" as="geometry" />
        </mxCell>
        <mxCell id="SVO_0Hrm69eMG6_zyPty-12" value="" style="shape=flexArrow;endArrow=classic;startArrow=classic;html=1;rounded=0;width=11;endSize=3.3793103448275863;fillColor=#d5e8d4;strokeColor=#82b366;fillStyle=zigzag-line;startWidth=13.10344827586207;startSize=3.68;endWidth=13.10344827586207;" edge="1" parent="1" target="SVO_0Hrm69eMG6_zyPty-10">
          <mxGeometry width="100" height="100" relative="1" as="geometry">
            <mxPoint x="350" y="340" as="sourcePoint" />
            <mxPoint x="420" y="340" as="targetPoint" />
          </mxGeometry>
        </mxCell>
        <mxCell id="SVO_0Hrm69eMG6_zyPty-20" value="API" style="edgeLabel;html=1;align=center;verticalAlign=middle;resizable=0;points=[];" vertex="1" connectable="0" parent="SVO_0Hrm69eMG6_zyPty-12">
          <mxGeometry x="0.2544" y="2" relative="1" as="geometry">
            <mxPoint x="-14" y="-8" as="offset" />
          </mxGeometry>
        </mxCell>
        <mxCell id="SVO_0Hrm69eMG6_zyPty-13" value="" style="shape=flexArrow;endArrow=classic;startArrow=classic;html=1;rounded=0;width=11;endSize=3.68;fillColor=#d5e8d4;strokeColor=#82b366;fillStyle=zigzag-line;startWidth=10.32258064516129;startSize=3.68;endWidth=10.32258064516129;" edge="1" parent="1">
          <mxGeometry width="100" height="100" relative="1" as="geometry">
            <mxPoint x="350" y="425" as="sourcePoint" />
            <mxPoint x="460" y="425" as="targetPoint" />
          </mxGeometry>
        </mxCell>
        <mxCell id="SVO_0Hrm69eMG6_zyPty-21" value="React entry file" style="edgeLabel;html=1;align=center;verticalAlign=middle;resizable=0;points=[];" vertex="1" connectable="0" parent="SVO_0Hrm69eMG6_zyPty-13">
          <mxGeometry x="-0.1327" y="3" relative="1" as="geometry">
            <mxPoint x="7" y="-2" as="offset" />
          </mxGeometry>
        </mxCell>
        <mxCell id="SVO_0Hrm69eMG6_zyPty-16" value="" style="dashed=0;outlineConnect=0;html=1;align=center;labelPosition=center;verticalLabelPosition=bottom;verticalAlign=top;shape=mxgraph.weblogos.chrome" vertex="1" parent="1">
          <mxGeometry x="139.05" y="399.6" width="27.4" height="25.4" as="geometry" />
        </mxCell>
        <mxCell id="SVO_0Hrm69eMG6_zyPty-18" value="PayPal CDN" style="ellipse;shape=cloud;whiteSpace=wrap;html=1;" vertex="1" parent="1">
          <mxGeometry x="450" y="380" width="120" height="80" as="geometry" />
        </mxCell>
        <mxCell id="SVO_0Hrm69eMG6_zyPty-23" value="" style="shape=image;verticalLabelPosition=bottom;labelBackgroundColor=default;verticalAlign=top;aspect=fixed;imageAspect=0;image=data:image/svg+xml,PHN2ZyB4bWxucz0iaHR0cDovL3d3dy53My5vcmcvMjAwMC9zdmciIHZpZXdCb3g9Ii0xMS41IC0xMC4yMzE3NCAyMyAyMC40NjM0OCI+JiN4YTsgIDx0aXRsZT5SZWFjdCBMb2dvPC90aXRsZT4mI3hhOyAgPGNpcmNsZSBmaWxsPSIjNjFkYWZiIiByPSIyLjA1IiBjeT0iMCIgY3g9IjAiLz4mI3hhOyAgPGcgZmlsbD0ibm9uZSIgc3Ryb2tlLXdpZHRoPSIxIiBzdHJva2U9IiM2MWRhZmIiPiYjeGE7ICAgIDxlbGxpcHNlIHJ5PSI0LjIiIHJ4PSIxMSIvPiYjeGE7ICAgIDxlbGxpcHNlIHRyYW5zZm9ybT0icm90YXRlKDYwKSIgcnk9IjQuMiIgcng9IjExIi8+JiN4YTsgICAgPGVsbGlwc2UgdHJhbnNmb3JtPSJyb3RhdGUoMTIwKSIgcnk9IjQuMiIgcng9IjExIi8+JiN4YTsgIDwvZz4mI3hhOzwvc3ZnPg==;" vertex="1" parent="1">
          <mxGeometry x="135.5" y="350" width="34.5" height="30" as="geometry" />
        </mxCell>
        <mxCell id="SVO_0Hrm69eMG6_zyPty-28" value="" style="shape=flexArrow;endArrow=classic;startArrow=classic;html=1;rounded=0;width=11;endSize=3.3793103448275863;fillColor=#d5e8d4;strokeColor=#82b366;fillStyle=zigzag-line;startWidth=13.10344827586207;startSize=3.68;endWidth=13.10344827586207;" edge="1" parent="1">
          <mxGeometry width="100" height="100" relative="1" as="geometry">
            <mxPoint x="190" y="384.72" as="sourcePoint" />
            <mxPoint x="230" y="384.72" as="targetPoint" />
          </mxGeometry>
        </mxCell>
      </root>
    </mxGraphModel>
  </diagram>
</mxfile>
